<svg width="133" height="29" viewBox="0 0 133 29" fill="none" xmlns="http://www.w3.org/2000/svg">
<g clip-path="url(#clip0_14_407)" filter="url(#filter0_dd_14_407)">
<path d="M21.7789 3.81812H7.0101V6.7265H4V20.9962H18.7688V18.0878H21.7789V3.81812ZM18.7649 8.78846V18.0878H9.14418L18.7688 8.78846H18.7649ZM7.01395 16.0296V6.73022H16.6385L7.01395 16.0296Z" fill="white"/>
<path d="M23.9592 3.86304H27.6948L32.1444 16.5965L32.565 18.2371L32.9895 16.5965L37.4082 3.86304H40.947L34.5795 21.0001H30.3229L23.9592 3.86304Z" fill="white"/>
<path d="M40.6228 12.4614C40.6228 6.92429 43.7757 3.86304 48.7115 3.86304C53.6473 3.86304 56.8001 7.13683 56.8001 12.4614C56.8001 17.786 53.6473 20.9964 48.7115 20.9964C43.7757 20.9964 40.6228 17.7822 40.6228 12.4614ZM53.2575 12.4614C53.2575 8.72898 51.6328 6.61854 48.7115 6.61854C45.7901 6.61854 44.1655 8.66932 44.1655 12.4614C44.1655 16.2535 45.7901 18.2446 48.7115 18.2446C51.6328 18.2446 53.2575 16.2237 53.2575 12.4614Z" fill="white"/>
<path d="M72.3909 15.8881C72.3909 18.9792 69.4348 20.9964 65.2439 20.9964C61.0529 20.9964 58.0968 19.1619 57.4485 15.2766H60.9217C61.2806 17.3273 62.9014 18.4571 65.3403 18.4571C67.7793 18.4571 68.9139 17.4765 68.9139 16.1006C68.9139 12.0326 58.0003 15.4593 58.0003 8.75881C58.0003 6.21957 60.1113 3.86304 64.4952 3.86304C68.362 3.86304 71.2177 5.54468 71.7696 9.61641H68.2926C67.9028 7.31954 66.5405 6.46567 64.3293 6.46567C62.4113 6.46567 61.3076 7.35309 61.3076 8.57611C61.3076 12.7373 72.3832 9.24727 72.3832 15.8881H72.3909Z" fill="white"/>
<path d="M80.6339 6.46555V3.86293H76.8945V0H73.4174V15.5971C73.4174 19.2102 75.0074 20.9963 78.3841 20.9963C79.3604 20.9963 80.1747 20.8732 80.5645 20.6868V18.237H79.8775C77.4463 18.237 76.8945 17.331 76.8945 15.4107V6.46555H80.6339Z" fill="white"/>
<path d="M92.52 3.86304H95.9623V21.0001H92.52V18.3304C91.3815 20.1201 89.5639 20.9964 87.3565 20.9964C83.8177 20.9964 81.6064 18.9866 81.6064 15.0342V3.86304H85.0835V14.3444C85.0835 16.7606 86.1216 18.2036 88.4293 18.2036C90.9609 18.2036 92.52 15.9738 92.52 13.6546V3.86304Z" fill="white"/>
<path d="M97.1046 3.86304H100.582V6.34262C101.72 4.33285 103.507 3.86304 105.517 3.86304C106.2 3.86304 106.849 4.01964 107.173 4.30302V7.25242C106.652 7.09581 106.035 7.03243 105.321 7.03243C102.009 7.03243 100.578 8.53882 100.578 11.4584V21.0001H97.1007V3.86304H97.1046Z" fill="white"/>
<path d="M114.968 20.9964C109.87 20.9964 106.752 17.7822 106.752 12.4614C106.752 7.14056 109.87 3.86304 114.81 3.86304C119.75 3.86304 122.833 7.04361 122.833 12.2787V13.0729H110.295C110.488 16.4101 112.147 18.2744 114.972 18.2744C117.18 18.2744 118.739 17.2938 119.325 15.2766H122.964C122.023 19.0724 119.032 20.9964 114.972 20.9964H114.968ZM110.388 10.8394H119.221C118.8 8.08392 117.272 6.58871 114.806 6.58871C112.34 6.58871 110.812 8.08765 110.388 10.8394Z" fill="white"/>
<path d="M126.094 3.86304C126.167 3.86304 126.241 3.86304 126.314 3.86304C126.322 3.86304 126.333 3.86677 126.341 3.86677C126.499 3.87049 126.654 3.89287 126.804 3.92642C127.41 4.05693 127.916 4.34777 128.321 4.79894C128.734 5.2613 128.958 5.79823 128.996 6.40601C129.012 6.64091 128.996 6.87209 128.946 7.10327C128.815 7.69986 128.514 8.19951 128.039 8.60221C127.568 8.99745 127.016 9.21371 126.395 9.25846C126.164 9.27337 125.936 9.25846 125.708 9.22117C125.427 9.1727 125.156 9.08321 124.906 8.9527C124.288 8.63204 123.852 8.15476 123.597 7.52834C123.493 7.27479 123.435 7.00633 123.42 6.73413C123.42 6.71176 123.412 6.68939 123.408 6.67074C123.408 6.60363 123.408 6.53278 123.408 6.46567C123.408 6.44329 123.416 6.42465 123.416 6.40228C123.424 6.2755 123.439 6.15245 123.466 6.02941C123.536 5.69755 123.667 5.38807 123.86 5.10096C124.118 4.71691 124.454 4.41488 124.867 4.19489C125.241 3.99727 125.643 3.88914 126.071 3.87049C126.079 3.87049 126.09 3.87049 126.098 3.86677L126.094 3.86304ZM126.21 4.41488C124.971 4.41488 123.983 5.38434 123.983 6.56261C123.983 7.74834 124.975 8.71407 126.206 8.71407C127.433 8.71407 128.433 7.75206 128.433 6.56634C128.433 5.37316 127.433 4.41861 126.21 4.41488Z" fill="white"/>
<path d="M127.727 6.20832H127.696C127.464 6.20832 127.233 6.20832 127.001 6.20832C126.978 6.20832 126.97 6.20087 126.959 6.18222C126.827 5.95104 126.631 5.80563 126.36 5.75342C125.901 5.66766 125.454 5.9585 125.361 6.40222C125.264 6.85339 125.577 7.2971 126.044 7.37913C126.43 7.44625 126.804 7.25982 126.974 6.9205C126.974 6.91305 126.982 6.90559 126.986 6.89813H127.73C127.599 7.52455 126.97 8.12114 126.117 8.08013C125.311 8.03911 124.655 7.40523 124.635 6.60357C124.616 5.8019 125.234 5.13819 126.036 5.05989C126.893 4.97413 127.568 5.54089 127.727 6.20832Z" fill="white"/>
</g>
<defs>
<filter id="filter0_dd_14_407" x="0" y="0" width="133" height="29" filterUnits="userSpaceOnUse" color-interpolation-filters="sRGB">
<feFlood flood-opacity="0" result="BackgroundImageFix"/>
<feColorMatrix in="SourceAlpha" type="matrix" values="0 0 0 0 0 0 0 0 0 0 0 0 0 0 0 0 0 0 127 0" result="hardAlpha"/>
<feOffset dy="4"/>
<feGaussianBlur stdDeviation="2"/>
<feComposite in2="hardAlpha" operator="out"/>
<feColorMatrix type="matrix" values="0 0 0 0 0 0 0 0 0 0 0 0 0 0 0 0 0 0 0.25 0"/>
<feBlend mode="normal" in2="BackgroundImageFix" result="effect1_dropShadow_14_407"/>
<feColorMatrix in="SourceAlpha" type="matrix" values="0 0 0 0 0 0 0 0 0 0 0 0 0 0 0 0 0 0 127 0" result="hardAlpha"/>
<feOffset dy="4"/>
<feGaussianBlur stdDeviation="2"/>
<feComposite in2="hardAlpha" operator="out"/>
<feColorMatrix type="matrix" values="0 0 0 0 0 0 0 0 0 0 0 0 0 0 0 0 0 0 0.25 0"/>
<feBlend mode="normal" in2="effect1_dropShadow_14_407" result="effect2_dropShadow_14_407"/>
<feBlend mode="normal" in="SourceGraphic" in2="effect2_dropShadow_14_407" result="shape"/>
</filter>
<clipPath id="clip0_14_407">
<rect width="125" height="21" fill="white" transform="translate(4)"/>
</clipPath>
</defs>
</svg>
